<svg width="9" height="13" viewBox="0 0 9 13" fill="none" background="red" xmlns="http://www.w3.org/2000/svg">
    <path
        d="M4.72 12.192C3.99467 12.192 3.33333 12.064 2.736 11.808C2.14933 11.5413 1.68 11.1413 1.328 10.608C0.976 10.0747 0.789333 9.408 0.768 8.608H2.448C2.46933 9.20533 2.672 9.712 3.056 10.128C3.45067 10.5333 4.00533 10.736 4.72 10.736C5.40267 10.736 5.92533 10.5493 6.288 10.176C6.65067 9.792 6.832 9.31733 6.832 8.752C6.832 8.06933 6.58667 7.56267 6.096 7.232C5.616 6.90133 5.024 6.736 4.32 6.736H3.488V5.328H4.336C4.96533 5.328 5.472 5.17867 5.856 4.88C6.25067 4.58133 6.448 4.16 6.448 3.616C6.448 3.15733 6.29333 2.784 5.984 2.496C5.68533 2.208 5.25867 2.064 4.704 2.064C4.128 2.064 3.67467 2.23467 3.344 2.576C3.01333 2.90667 2.832 3.32267 2.8 3.824H1.12C1.14133 3.17333 1.30133 2.608 1.6 2.128C1.90933 1.648 2.33067 1.27467 2.864 1.008C3.39733 0.741333 4.01067 0.608 4.704 0.608C5.45067 0.608 6.07467 0.741333 6.576 1.008C7.088 1.264 7.472 1.616 7.728 2.064C7.99467 2.50133 8.128 2.98133 8.128 3.504C8.128 4.10133 7.96267 4.624 7.632 5.072C7.30133 5.52 6.85867 5.81867 6.304 5.968C6.944 6.10667 7.472 6.42133 7.888 6.912C8.304 7.392 8.512 8.016 8.512 8.784C8.512 9.40267 8.368 9.97333 8.08 10.496C7.792 11.008 7.36533 11.4187 6.8 11.728C6.23467 12.0373 5.54133 12.192 4.72 12.192Z"
        fill="white" />
</svg>
    